# Blender v2.76 (sub 0) OBJ File: 'cube.blend'
# www.blender.org
mtllib cube.mtl
o Cube_Cube.001
v -1.000000 -1.000000 1.000000
v -1.000000 1.000000 1.000000
v -1.000000 -1.000000 -1.000000
v -1.000000 1.000000 -1.000000
v 1.000000 -1.000000 1.000000
v 1.000000 1.000000 1.000000
v 1.000000 -1.000000 -1.000000
v 1.000000 1.000000 -1.000000
vt 1.000000 0.000000
vt 1.000000 -1.000000
vt 0.000000 -1.000000
vt -1.000000 0.000000
vt -1.000000 -1.000000
vt 0.000000 1.000000
vt 1.000000 1.000000
vt -1.000000 1.000000
vt 0.000000 0.000000
vn -1.000000 0.000000 0.000000
vn 0.000000 0.000000 -1.000000
vn 1.000000 0.000000 0.000000
vn 0.000000 0.000000 1.000000
vn 0.000000 -1.000000 0.000000
vn 0.000000 1.000000 0.000000
g Cube_Cube.001_None
usemtl CubeMat
s off
f 4/1/1 3/2/1 1/3/1
f 8/1/2 7/2/2 3/3/2
f 6/4/3 5/5/3 7/3/3
f 2/4/4 1/5/4 5/3/4
f 3/6/5 7/7/5 5/1/5
f 8/6/6 4/8/6 2/4/6
f 2/9/1 4/1/1 1/3/1
f 4/9/2 8/1/2 3/3/2
f 8/9/3 6/4/3 7/3/3
f 6/9/4 2/4/4 5/3/4
f 1/9/5 3/6/5 5/1/5
f 6/9/6 8/6/6 2/4/6
